<?xml version="1.0" encoding="utf-8"?>
<!-- Generator: Adobe Illustrator 23.0.0, SVG Export Plug-In . SVG Version: 6.00 Build 0)  -->
<svg version="1.1" id="Capa_1" xmlns="http://www.w3.org/2000/svg" xmlns:xlink="http://www.w3.org/1999/xlink" x="0px" y="0px"
	 viewBox="0 0 792 612" style="enable-background:new 0 0 792 612;" xml:space="preserve">
<style type="text/css">
	.st0{fill:#1C442B;}
	.st1{fill:#2A9868;}
	.st2{fill:#30A8DE;}
	.st3{font-family:'Roboto-Regular';}
	.st4{font-size:27.2551px;}
</style>
<g>
	<g>
		<g>
			<path class="st0" d="M486.07,388.65v1.67h-1.98c-0.71,0-1.37,0.14-1.98,0.41c-0.61,0.27-1.15,0.63-1.62,1.09
				c-0.47,0.46-0.84,1-1.11,1.62c-0.27,0.62-0.41,1.29-0.41,2v5.92v12.51h-1.67v-12.51v-5.92v-4.86h-1.67v-1.67h1.67h1.67v1.67v0.4
				c1.28-1.49,2.94-2.26,4.96-2.33H486.07z"/>
		</g>
		<g>
			<path class="st0" d="M497.05,399.99c-0.3,0.1-0.81,0.3-1.52,0.58c-0.71,0.29-1.48,0.58-2.3,0.89c-0.83,0.3-1.63,0.61-2.4,0.91
				c-0.78,0.3-1.39,0.52-1.82,0.66v4.3c0,0.71,0.13,1.38,0.41,2c0.27,0.62,0.63,1.16,1.09,1.62c0.46,0.46,0.99,0.82,1.62,1.09
				c0.62,0.27,1.29,0.4,2,0.4c0.71,0,1.38-0.13,2-0.4c0.62-0.27,1.17-0.63,1.62-1.09c0.46-0.46,0.82-1,1.09-1.62
				c0.27-0.62,0.41-1.29,0.41-2h1.67c0,0.94-0.18,1.83-0.53,2.66c-0.35,0.83-0.84,1.54-1.44,2.15c-0.61,0.61-1.33,1.09-2.15,1.44
				c-0.83,0.35-1.71,0.53-2.66,0.53c-0.95,0-1.83-0.18-2.66-0.53c-0.83-0.35-1.54-0.84-2.15-1.44c-0.61-0.61-1.09-1.32-1.44-2.15
				c-0.35-0.83-0.53-1.71-0.53-2.66v-11.9c0-0.94,0.18-1.83,0.53-2.66c0.35-0.83,0.84-1.54,1.44-2.15c0.61-0.61,1.32-1.09,2.15-1.44
				c0.83-0.35,1.71-0.53,2.66-0.53c0.94,0,1.83,0.18,2.66,0.53c0.83,0.35,1.54,0.84,2.15,1.44c0.61,0.61,1.09,1.33,1.44,2.15
				c0.35,0.83,0.53,1.7,0.53,2.61v0.05C500.9,397.53,499.62,399.05,497.05,399.99z M494.12,390.32c-0.71,0-1.38,0.14-2,0.41
				c-0.63,0.27-1.16,0.63-1.62,1.09c-0.46,0.46-0.82,1-1.09,1.62c-0.27,0.62-0.41,1.29-0.41,2v5.82c0.51-0.2,1.13-0.45,1.87-0.73
				c0.74-0.29,1.48-0.57,2.23-0.84c0.74-0.27,1.43-0.52,2.05-0.76c0.62-0.24,1.07-0.41,1.34-0.51c0.61-0.24,1.22-0.59,1.82-1.06
				c0.61-0.47,0.91-1.13,0.91-1.97c0-0.71-0.14-1.37-0.41-1.98c-0.27-0.61-0.63-1.14-1.09-1.59c-0.46-0.46-1-0.82-1.62-1.09
				C495.49,390.45,494.83,390.32,494.12,390.32z"/>
		</g>
		<g>
			<path class="st0" d="M511.23,412.45c0.71,0,1.38-0.13,2-0.4c0.62-0.27,1.16-0.63,1.62-1.09c0.46-0.46,0.82-1,1.09-1.62
				c0.27-0.62,0.41-1.29,0.41-2h1.67c0,0.94-0.18,1.83-0.53,2.66c-0.35,0.83-0.84,1.54-1.44,2.15c-0.61,0.61-1.33,1.09-2.15,1.44
				c-0.83,0.35-1.71,0.53-2.66,0.53c-0.95,0-1.83-0.18-2.66-0.53c-0.83-0.35-1.54-0.84-2.15-1.44c-0.61-0.61-1.09-1.32-1.44-2.15
				c-0.35-0.83-0.53-1.71-0.53-2.66v-11.9c0-0.94,0.18-1.83,0.53-2.66c0.35-0.83,0.84-1.54,1.44-2.15c0.61-0.61,1.32-1.09,2.15-1.44
				c0.83-0.35,1.71-0.53,2.66-0.53c0.94,0,1.83,0.18,2.66,0.53c0.83,0.35,1.54,0.84,2.15,1.44c0.61,0.61,1.09,1.33,1.44,2.15
				c0.35,0.83,0.53,1.71,0.53,2.66h-1.67c0-0.71-0.14-1.38-0.41-2c-0.27-0.62-0.63-1.17-1.09-1.62c-0.46-0.46-1-0.82-1.62-1.09
				c-0.62-0.27-1.29-0.41-2-0.41c-0.71,0-1.38,0.14-2,0.41c-0.63,0.27-1.16,0.63-1.62,1.09c-0.46,0.46-0.82,1-1.09,1.62
				c-0.27,0.62-0.41,1.29-0.41,2v11.9c0,0.71,0.13,1.38,0.41,2c0.27,0.62,0.63,1.16,1.09,1.62c0.46,0.46,0.99,0.82,1.62,1.09
				C509.86,412.31,510.52,412.45,511.23,412.45z"/>
		</g>
		<g>
			<path class="st0" d="M523.28,388.5h1.67v1.72v23.29h-1.67v-23.29h-1.67v-1.72H523.28z M523.69,382.72
				c-0.37,0-0.68-0.12-0.91-0.35c-0.24-0.24-0.35-0.54-0.35-0.91c0-0.37,0.12-0.67,0.35-0.91c0.24-0.24,0.54-0.35,0.91-0.35
				c0.34,0,0.63,0.12,0.89,0.35c0.25,0.24,0.38,0.54,0.38,0.91c0,0.37-0.13,0.68-0.38,0.91
				C524.32,382.6,524.03,382.72,523.69,382.72z"/>
		</g>
		<g>
			<path class="st0" d="M535.79,412.45c0.71,0,1.38-0.13,2-0.4c0.62-0.27,1.17-0.63,1.62-1.09c0.46-0.46,0.82-1,1.09-1.62
				c0.27-0.62,0.41-1.29,0.41-2h1.67c0,0.94-0.18,1.83-0.53,2.66c-0.35,0.83-0.84,1.54-1.44,2.15c-0.61,0.61-1.33,1.09-2.15,1.44
				c-0.83,0.35-1.71,0.53-2.66,0.53c-0.95,0-1.83-0.18-2.66-0.53c-0.83-0.35-1.54-0.84-2.15-1.44c-0.61-0.61-1.09-1.32-1.44-2.15
				c-0.35-0.83-0.53-1.71-0.53-2.66v-11.9c0-0.94,0.18-1.83,0.53-2.66c0.35-0.83,0.84-1.54,1.44-2.15c0.61-0.61,1.32-1.09,2.15-1.44
				c0.83-0.35,1.71-0.53,2.66-0.53c0.94,0,1.83,0.18,2.66,0.53c0.83,0.35,1.54,0.84,2.15,1.44c0.61,0.61,1.09,1.33,1.44,2.15
				c0.35,0.83,0.53,1.71,0.53,2.66h-1.67c0-0.71-0.14-1.38-0.41-2c-0.27-0.62-0.63-1.17-1.09-1.62c-0.46-0.46-1-0.82-1.62-1.09
				c-0.62-0.27-1.29-0.41-2-0.41c-0.71,0-1.38,0.14-2,0.41c-0.63,0.27-1.16,0.63-1.62,1.09c-0.46,0.46-0.82,1-1.09,1.62
				c-0.27,0.62-0.41,1.29-0.41,2v11.9c0,0.71,0.13,1.38,0.41,2c0.27,0.62,0.63,1.16,1.09,1.62c0.46,0.46,0.99,0.82,1.62,1.09
				C534.42,412.31,535.08,412.45,535.79,412.45z"/>
		</g>
		<g>
			<path class="st0" d="M546.12,413.86v-36.31h1.67v36.31H546.12z"/>
		</g>
		<g>
			<path class="st0" d="M558.78,388.65c0.94,0,1.81,0.18,2.58,0.53c0.78,0.35,1.44,0.84,2,1.44c0.56,0.61,1,1.33,1.32,2.15
				c0.32,0.83,0.48,1.71,0.48,2.66v5.92v5.98v6.53h-1.67v-2.08c-0.64,0.71-1.4,1.27-2.28,1.7c-0.88,0.42-1.82,0.63-2.84,0.63
				c-0.95,0-1.83-0.18-2.66-0.53c-0.83-0.35-1.54-0.84-2.15-1.44c-0.61-0.61-1.09-1.32-1.44-2.15c-0.35-0.83-0.53-1.71-0.53-2.66
				v-1.42c0-2.09,1.28-3.61,3.85-4.56c0.3-0.13,0.82-0.34,1.54-0.61c0.73-0.27,1.5-0.57,2.33-0.89c0.83-0.32,1.63-0.62,2.4-0.91
				c0.78-0.29,1.37-0.51,1.77-0.68v-2.84c0-1.42-0.43-2.62-1.29-3.62c-0.86-1-2-1.49-3.42-1.49c-0.71,0-1.37,0.14-1.97,0.41
				c-0.61,0.27-1.15,0.63-1.62,1.09c-0.47,0.46-0.84,1-1.11,1.62c-0.27,0.62-0.4,1.29-0.4,2H552c0-0.94,0.18-1.83,0.53-2.66
				c0.35-0.83,0.84-1.54,1.44-2.15c0.61-0.61,1.32-1.09,2.15-1.44C556.95,388.82,557.83,388.65,558.78,388.65z M563.49,401.36v-1.27
				c-0.51,0.2-1.13,0.44-1.87,0.71c-0.74,0.27-1.49,0.55-2.23,0.84c-0.74,0.29-1.42,0.55-2.03,0.78c-0.61,0.24-1.05,0.41-1.32,0.51
				c-0.64,0.24-1.27,0.59-1.87,1.06c-0.61,0.47-0.91,1.11-0.91,1.92v1.42c0,0.71,0.13,1.38,0.41,2c0.27,0.62,0.63,1.16,1.09,1.62
				c0.46,0.46,0.99,0.82,1.62,1.09c0.62,0.27,1.29,0.4,2,0.4c0.71,0,1.38-0.13,2-0.4c0.62-0.27,1.17-0.63,1.62-1.09
				c0.46-0.46,0.82-1,1.09-1.62c0.27-0.62,0.41-1.29,0.41-2V401.36z"/>
		</g>
		<g>
			<path class="st0" d="M578.88,388.65v1.67h-1.98c-0.71,0-1.37,0.14-1.98,0.41c-0.61,0.27-1.15,0.63-1.62,1.09
				c-0.47,0.46-0.84,1-1.11,1.62c-0.27,0.62-0.41,1.29-0.41,2v5.92v12.51h-1.67v-12.51v-5.92v-4.86h-1.67v-1.67h1.67h1.67v1.67v0.4
				c1.28-1.49,2.94-2.26,4.96-2.33H578.88z"/>
		</g>
		<g>
			<path class="st0" d="M596.56,388.65c0.94,0,1.83,0.18,2.66,0.53c0.83,0.35,1.54,0.84,2.15,1.44c0.61,0.61,1.09,1.33,1.44,2.15
				c0.35,0.83,0.53,1.71,0.53,2.66v5.92v12.51h-1.67v-12.51v-5.92c0-0.71-0.14-1.38-0.41-2c-0.27-0.62-0.63-1.17-1.09-1.62
				c-0.46-0.46-1-0.82-1.62-1.09c-0.62-0.27-1.29-0.41-2-0.41s-1.38,0.14-2,0.41c-0.63,0.27-1.16,0.63-1.62,1.09
				c-0.46,0.46-0.82,1-1.09,1.62c-0.27,0.62-0.41,1.29-0.41,2v5.92v12.51h-1.67v-12.51v-5.92v-6.53h1.67v2.08
				c0.64-0.74,1.4-1.32,2.28-1.72C594.6,388.85,595.54,388.65,596.56,388.65z"/>
		</g>
		<g>
			<path class="st0" d="M613.67,414.12c-0.95,0-1.83-0.18-2.66-0.53c-0.83-0.35-1.54-0.84-2.15-1.44c-0.61-0.61-1.09-1.32-1.44-2.15
				c-0.35-0.83-0.53-1.71-0.53-2.66v-11.9c0-0.94,0.18-1.83,0.53-2.66c0.35-0.83,0.84-1.54,1.44-2.15c0.61-0.61,1.32-1.09,2.15-1.44
				c0.83-0.35,1.71-0.53,2.66-0.53c0.94,0,1.83,0.18,2.66,0.53c0.83,0.35,1.54,0.84,2.15,1.44c0.61,0.61,1.09,1.33,1.44,2.15
				c0.35,0.83,0.53,1.71,0.53,2.66v11.9c0,0.94-0.18,1.83-0.53,2.66c-0.35,0.83-0.84,1.54-1.44,2.15c-0.61,0.61-1.33,1.09-2.15,1.44
				C615.5,413.94,614.62,414.12,613.67,414.12z M613.67,390.32c-0.71,0-1.38,0.14-2,0.41c-0.63,0.27-1.16,0.63-1.62,1.09
				c-0.46,0.46-0.82,1-1.09,1.62c-0.27,0.62-0.41,1.29-0.41,2v11.9c0,0.71,0.13,1.38,0.41,2c0.27,0.62,0.63,1.16,1.09,1.62
				c0.46,0.46,0.99,0.82,1.62,1.09c0.62,0.27,1.29,0.4,2,0.4c0.71,0,1.38-0.13,2-0.4c0.62-0.27,1.17-0.63,1.62-1.09
				c0.46-0.46,0.82-1,1.09-1.62c0.27-0.62,0.41-1.29,0.41-2v-11.9c0-0.71-0.14-1.38-0.41-2c-0.27-0.62-0.63-1.17-1.09-1.62
				c-0.46-0.46-1-0.82-1.62-1.09C615.05,390.45,614.38,390.32,613.67,390.32z"/>
		</g>
		<g>
			<path class="st0" d="M631.19,400.6c0.74,0.37,1.49,0.77,2.25,1.19c0.76,0.42,1.44,0.9,2.05,1.44c0.61,0.54,1.11,1.14,1.49,1.8
				c0.39,0.66,0.58,1.43,0.58,2.3c0,0.94-0.18,1.83-0.53,2.66c-0.35,0.83-0.84,1.54-1.44,2.15c-0.61,0.61-1.33,1.09-2.15,1.44
				c-0.83,0.35-1.71,0.53-2.66,0.53c-0.95,0-1.83-0.18-2.66-0.53c-0.83-0.35-1.54-0.84-2.15-1.44c-0.61-0.61-1.09-1.32-1.44-2.15
				c-0.35-0.83-0.53-1.71-0.53-2.66h1.67c0,0.71,0.13,1.38,0.41,2c0.27,0.62,0.63,1.16,1.09,1.62c0.46,0.46,0.99,0.82,1.62,1.09
				c0.62,0.27,1.29,0.4,2,0.4s1.38-0.13,2-0.4c0.62-0.27,1.17-0.63,1.62-1.09c0.46-0.46,0.82-1,1.09-1.62
				c0.27-0.62,0.41-1.29,0.41-2c0-0.61-0.15-1.16-0.46-1.65c-0.3-0.49-0.71-0.94-1.22-1.34c-0.51-0.41-1.09-0.79-1.75-1.14
				c-0.66-0.35-1.34-0.72-2.05-1.09c-0.78-0.37-1.54-0.77-2.3-1.19c-0.76-0.42-1.44-0.89-2.05-1.42c-0.61-0.52-1.11-1.11-1.49-1.77
				c-0.39-0.66-0.58-1.43-0.58-2.3c0-0.94,0.18-1.83,0.53-2.66c0.35-0.83,0.84-1.54,1.44-2.15c0.61-0.61,1.32-1.09,2.15-1.44
				c0.83-0.35,1.71-0.53,2.66-0.53c0.94,0,1.83,0.18,2.66,0.53c0.83,0.35,1.54,0.84,2.15,1.44c0.61,0.61,1.09,1.33,1.44,2.15
				c0.35,0.83,0.53,1.71,0.53,2.66h-1.67c0-0.71-0.14-1.38-0.41-2c-0.27-0.62-0.63-1.17-1.09-1.62c-0.46-0.46-1-0.82-1.62-1.09
				c-0.62-0.27-1.29-0.41-2-0.41s-1.38,0.14-2,0.41c-0.63,0.27-1.16,0.63-1.62,1.09c-0.46,0.46-0.82,1-1.09,1.62
				c-0.27,0.62-0.41,1.29-0.41,2c0,0.61,0.15,1.16,0.46,1.65c0.3,0.49,0.72,0.94,1.24,1.34c0.52,0.4,1.11,0.78,1.77,1.14
				C629.8,399.91,630.48,400.26,631.19,400.6z"/>
		</g>
		<g>
			<path class="st0" d="M667.65,388.65c0.94,0,1.83,0.18,2.66,0.53c0.83,0.35,1.54,0.84,2.15,1.44c0.61,0.61,1.09,1.33,1.44,2.15
				c0.35,0.83,0.53,1.71,0.53,2.66v5.92v12.51h-1.67v-12.51v-5.92c0-0.71-0.14-1.38-0.4-2c-0.27-0.62-0.63-1.17-1.09-1.62
				c-0.46-0.46-1-0.82-1.62-1.09c-0.63-0.27-1.29-0.41-2-0.41c-0.71,0-1.37,0.14-1.97,0.41c-0.61,0.27-1.15,0.63-1.62,1.09
				c-0.47,0.46-0.84,1-1.11,1.62c-0.27,0.62-0.4,1.29-0.4,2v5.92v12.51h-1.67v-12.51v-5.92c0-0.71-0.14-1.38-0.41-2
				c-0.27-0.62-0.63-1.17-1.09-1.62c-0.46-0.46-1-0.82-1.62-1.09c-0.62-0.27-1.29-0.41-2-0.41s-1.38,0.14-2,0.41
				c-0.63,0.27-1.17,0.63-1.62,1.09c-0.46,0.46-0.82,1-1.09,1.62c-0.27,0.62-0.41,1.29-0.41,2v5.92v12.51h-1.67v-12.51v-5.92v-6.53
				h1.67v2.08c0.64-0.74,1.4-1.32,2.28-1.72c0.88-0.41,1.82-0.61,2.84-0.61c1.28,0,2.46,0.32,3.52,0.96
				c1.06,0.64,1.88,1.49,2.46,2.53c0.57-1.05,1.38-1.89,2.43-2.53C665.2,388.97,666.37,388.65,667.65,388.65z"/>
		</g>
		<g>
			<path class="st0" d="M691.55,388.9v12.46v5.98v6.53h-1.67v-2.08c-0.64,0.71-1.4,1.27-2.28,1.7c-0.88,0.42-1.82,0.63-2.84,0.63
				c-0.95,0-1.83-0.18-2.66-0.53c-0.83-0.35-1.54-0.84-2.15-1.44c-0.61-0.61-1.09-1.32-1.44-2.15c-0.35-0.83-0.53-1.71-0.53-2.66
				v-5.98V388.9h1.67v12.46v5.98c0,0.71,0.13,1.38,0.41,2c0.27,0.62,0.63,1.16,1.09,1.62c0.46,0.46,0.99,0.82,1.62,1.09
				c0.62,0.27,1.29,0.4,2,0.4c0.71,0,1.38-0.13,2-0.4c0.62-0.27,1.16-0.63,1.62-1.09c0.46-0.46,0.82-1,1.09-1.62
				c0.27-0.62,0.41-1.29,0.41-2v-5.98V388.9H691.55z"/>
		</g>
		<g>
			<path class="st0" d="M704.57,399.99c-0.3,0.1-0.81,0.3-1.52,0.58c-0.71,0.29-1.48,0.58-2.3,0.89c-0.83,0.3-1.63,0.61-2.4,0.91
				c-0.78,0.3-1.39,0.52-1.82,0.66v4.3c0,0.71,0.13,1.38,0.41,2c0.27,0.62,0.63,1.16,1.09,1.62c0.46,0.46,0.99,0.82,1.62,1.09
				c0.62,0.27,1.29,0.4,2,0.4c0.71,0,1.38-0.13,2-0.4c0.62-0.27,1.17-0.63,1.62-1.09c0.46-0.46,0.82-1,1.09-1.62
				c0.27-0.62,0.41-1.29,0.41-2h1.67c0,0.94-0.18,1.83-0.53,2.66c-0.35,0.83-0.84,1.54-1.44,2.15c-0.61,0.61-1.33,1.09-2.15,1.44
				c-0.83,0.35-1.71,0.53-2.66,0.53c-0.95,0-1.83-0.18-2.66-0.53c-0.83-0.35-1.54-0.84-2.15-1.44c-0.61-0.61-1.09-1.32-1.44-2.15
				c-0.35-0.83-0.53-1.71-0.53-2.66v-11.9c0-0.94,0.18-1.83,0.53-2.66c0.35-0.83,0.84-1.54,1.44-2.15c0.61-0.61,1.32-1.09,2.15-1.44
				c0.83-0.35,1.71-0.53,2.66-0.53c0.94,0,1.83,0.18,2.66,0.53c0.83,0.35,1.54,0.84,2.15,1.44c0.61,0.61,1.09,1.33,1.44,2.15
				c0.35,0.83,0.53,1.7,0.53,2.61v0.05C708.42,397.53,707.13,399.05,704.57,399.99z M701.63,390.32c-0.71,0-1.38,0.14-2,0.41
				c-0.63,0.27-1.16,0.63-1.62,1.09c-0.46,0.46-0.82,1-1.09,1.62c-0.27,0.62-0.41,1.29-0.41,2v5.82c0.51-0.2,1.13-0.45,1.87-0.73
				c0.74-0.29,1.48-0.57,2.23-0.84c0.74-0.27,1.43-0.52,2.05-0.76c0.62-0.24,1.07-0.41,1.34-0.51c0.61-0.24,1.22-0.59,1.82-1.06
				c0.61-0.47,0.91-1.13,0.91-1.97c0-0.71-0.14-1.37-0.41-1.98c-0.27-0.61-0.63-1.14-1.09-1.59c-0.46-0.46-1-0.82-1.62-1.09
				C703,390.45,702.34,390.32,701.63,390.32z"/>
		</g>
		<g>
			<path class="st0" d="M726.49,388.9l-6.58,24.96h-0.66h-1.06h-0.66l-6.58-24.96h1.72l6.03,22.94l6.03-22.94H726.49z"/>
		</g>
		<g>
			<path class="st0" d="M738.24,399.99c-0.3,0.1-0.81,0.3-1.52,0.58c-0.71,0.29-1.48,0.58-2.3,0.89c-0.83,0.3-1.63,0.61-2.4,0.91
				c-0.78,0.3-1.39,0.52-1.82,0.66v4.3c0,0.71,0.13,1.38,0.41,2c0.27,0.62,0.63,1.16,1.09,1.62c0.46,0.46,0.99,0.82,1.62,1.09
				c0.62,0.27,1.29,0.4,2,0.4c0.71,0,1.38-0.13,2-0.4c0.62-0.27,1.16-0.63,1.62-1.09c0.46-0.46,0.82-1,1.09-1.62
				c0.27-0.62,0.41-1.29,0.41-2h1.67c0,0.94-0.18,1.83-0.53,2.66c-0.35,0.83-0.84,1.54-1.44,2.15c-0.61,0.61-1.33,1.09-2.15,1.44
				c-0.83,0.35-1.71,0.53-2.66,0.53c-0.95,0-1.83-0.18-2.66-0.53c-0.83-0.35-1.54-0.84-2.15-1.44c-0.61-0.61-1.09-1.32-1.44-2.15
				c-0.35-0.83-0.53-1.71-0.53-2.66v-11.9c0-0.94,0.18-1.83,0.53-2.66c0.35-0.83,0.84-1.54,1.44-2.15c0.61-0.61,1.32-1.09,2.15-1.44
				c0.83-0.35,1.71-0.53,2.66-0.53c0.94,0,1.83,0.18,2.66,0.53c0.83,0.35,1.54,0.84,2.15,1.44c0.61,0.61,1.09,1.33,1.44,2.15
				c0.35,0.83,0.53,1.7,0.53,2.61v0.05C742.09,397.53,740.81,399.05,738.24,399.99z M735.3,390.32c-0.71,0-1.38,0.14-2,0.41
				c-0.63,0.27-1.17,0.63-1.62,1.09c-0.46,0.46-0.82,1-1.09,1.62c-0.27,0.62-0.41,1.29-0.41,2v5.82c0.51-0.2,1.13-0.45,1.87-0.73
				c0.74-0.29,1.49-0.57,2.23-0.84c0.74-0.27,1.43-0.52,2.05-0.76c0.62-0.24,1.07-0.41,1.34-0.51c0.61-0.24,1.22-0.59,1.82-1.06
				c0.61-0.47,0.91-1.13,0.91-1.97c0-0.71-0.14-1.37-0.41-1.98c-0.27-0.61-0.63-1.14-1.09-1.59c-0.46-0.46-1-0.82-1.62-1.09
				C736.68,390.45,736.01,390.32,735.3,390.32z"/>
		</g>
	</g>
	<g>
		<path class="st1" d="M361.49,329.54c0-17.91,13.83-32.65,34.47-32.65h22v-14.74c0-13.15-7.94-22.68-21.32-22.68
			c-12.02,0-19.5,8.39-20.41,20.86c-0.23,1.59-0.91,2.27-2.27,2.27h-8.39c-1.36,0-2.27-0.91-2.27-2.27
			c1.13-19.27,13.83-33.33,33.33-33.33c20.86,0,34.24,15.19,34.24,35.15v47.39c0,20.18-13.61,35.15-34.47,35.15
			C375.32,364.69,361.49,349.72,361.49,329.54z M417.95,329.54v-20.18h-22c-13.38,0-21.54,9.07-21.54,20.18
			c0,13.38,8.16,22.68,22,22.68C410.01,352.22,417.95,342.92,417.95,329.54z"/>
	</g>
	<g>
		<path class="st1" d="M522.94,282.6v46.71c0,20.41-13.83,35.6-32.65,35.6c-10.89,0-18.37-4.54-23.81-11.34v58.38
			c0,1.36-0.91,2.27-2.27,2.27h-8.39c-1.36,0-2.27-0.91-2.27-2.27V282.6c0-20.41,13.83-35.6,34.69-35.6
			C509.1,247,522.94,262.19,522.94,282.6z M510.01,282.6c0-13.6-8.16-23.13-21.77-23.13c-13.61,0-21.77,9.52-21.77,23.13v46.71
			c0,13.61,8.16,23.13,21.77,23.13c13.61,0,21.77-9.52,21.77-23.13V282.6z"/>
	</g>
	<g>
		<path class="st1" d="M590.05,352.9v7.94c0,1.36-0.91,2.27-2.27,2.27h-2.95c-20.18,0-31.97-14.06-31.97-38.1v-63.49h-14.06
			c-1.36,0-2.27-0.91-2.27-2.27v-7.71c0-1.36,0.91-2.27,2.27-2.27h14.06v-29.48c0-1.36,0.91-2.27,2.27-2.27h8.39
			c1.36,0,2.27,0.91,2.27,2.27v29.48h19.27c1.36,0,2.27,0.91,2.27,2.27v7.71c0,1.36-0.91,2.27-2.27,2.27h-19.27V325
			c0,16.78,6.58,25.62,19.05,25.62h2.95C589.37,350.63,590.05,351.53,590.05,352.9z"/>
	</g>
	<g>
		<path class="st1" d="M602.52,329.54c0-17.91,13.83-32.65,34.47-32.65h22v-14.74c0-13.15-7.94-22.68-21.32-22.68
			c-12.02,0-19.5,8.39-20.41,20.86c-0.23,1.59-0.91,2.27-2.27,2.27h-8.39c-1.36,0-2.27-0.91-2.27-2.27
			c1.13-19.27,13.83-33.33,33.33-33.33c20.86,0,34.24,15.19,34.24,35.15v47.39c0,20.18-13.61,35.15-34.47,35.15
			C616.35,364.69,602.52,349.72,602.52,329.54z M658.98,329.54v-20.18h-22c-13.38,0-21.54,9.07-21.54,20.18
			c0,13.38,8.16,22.68,21.99,22.68C651.05,352.22,658.98,342.92,658.98,329.54z"/>
	</g>
	<g>
		<path class="st1" d="M694.58,360.38v-76.87c0-20.86,15.19-34.92,35.6-34.92h9.98c1.36,0,2.27,0.91,2.27,2.27v7.94
			c0,1.36-0.91,2.27-2.27,2.27h-9.98c-13.38,0-22.68,8.39-22.68,22.45v76.87c0,1.36-0.91,2.27-2.27,2.27h-8.39
			C695.49,362.65,694.58,361.74,694.58,360.38z"/>
	</g>
	<path class="st1" d="M280.69,362.25c0,1.55,1.78,2.56,3.33,2.56h9.57c1.55,0,1.1-1.01,1.1-2.56v-58.83l47.17,61.55
		c0.92,1.17,2.23,1.57,3.41,0.65l7.26-5.7c1.17-0.92,1.07-2.41,0.14-3.58c-2.37-3.02-45.44-61.16-45.44-61.16l33.83-37.8
		c0.95-1.05,1.12-2.33,0.07-3.29l-6.5-5.88c-1.05-0.95-2.42-0.61-3.38,0.44c-1.91,2.11-36.55,40.33-36.55,40.33V200.9
		c0-1.55,0.51-3.09-1.04-3.09h-9.57c-1.55,0-3.39,1.49-3.39,3.04"/>
	<g>
		<g>
			<path class="st0" d="M235.62,222.32c1.95-1.82,2.06-4.87,0.25-6.82l-15.41-16.57c-1.81-1.95-4.87-2.06-6.82-0.25l-9.24,8.6
				c-1.95,1.82-2.06,4.87-0.25,6.82l15.41,16.57c1.81,1.95,4.87,2.06,6.82,0.25L235.62,222.32z"/>
		</g>
	</g>
	<g>
		<g>
			<polygon class="st2" points="113.43,248.37 88.07,217.54 58.13,210.05 25.89,220.37 13.23,247.47 11.73,272.92 81.1,348.08 
				100,350.82 116.61,355.37 152.36,345.81 150.19,331.01 158.05,321.79 149.44,308.84 128.48,287.89 102.5,261.57 			"/>
		</g>
	</g>
	<g>
		<path class="st0" d="M200.58,215.17c-8.59-5.72-18.67-8.8-29.23-8.8c-14.12,0-27.39,5.5-37.38,15.48l-18.77,18.77l-19.01-20.1
			c-9.74-9.74-22.69-14.71-36.48-15.71c-0.17,0-0.34,0-0.5,0c-13.97,0-27.07,5.82-36.96,15.71c-9.88,9.87-15.31,23.21-15.31,37.17
			c0,13.96,5.43,27.2,15.31,37.07l25.15,25.22l25.56,25.58l-0.07,0.02l0.84,0.77c2.64,2.4,5.28,4.8,7.92,7.2
			c0,0,11.61,12.29,31.3,13.21c0,0,16.39,2.5,32.21-8.54c0,0,2.26-1.7,4.8-3.75c5.44-4.37,10.22-9.35,15.16-14.3
			c0.59-0.59,1.18-1.18,1.78-1.78l41.8-41.8c16.83-16.83,19.91-42.28,9.25-62.27L200.58,215.17z M28.98,288.14
			c-8.08-8.08-12.52-18.82-12.52-30.25c0-11.43,4.45-22.17,12.52-30.25c8.19-8.19,18.95-12.78,30.65-12.53
			c11.28,0.11,21.87,4.55,29.84,12.53l20.07,20.66l-12.78,14.4l6.16,5.27l35.03,35.03l12.02,12.02c0.89,0.89,1.39,2.09,1.39,3.36
			c0,1.27-0.49,2.47-1.39,3.37c-1.86,1.85-4.86,1.85-6.72,0l-18.75-18.75l-16.07-15.94c-1.86-1.86-4.86-1.86-6.73,0
			c-1.86,1.86-1.86,4.86,0,6.72l9.36,9.22l35.55,35.54c0.89,0.9,1.39,2.1,1.39,3.37c0,0.17-0.01,0.33-0.03,0.49l-0.94,2.37
			c-0.13,0.17-0.27,0.34-0.43,0.5c-1.86,1.85-4.86,1.85-6.72,0l-10.02-10.02c-0.02-0.02-0.04-0.04-0.07-0.06l-32.19-32.19l-2.63-2.5
			c-1.87-1.86-4.86-1.86-6.72,0c-1.87,1.86-1.87,4.86,0,6.72l1.84,1.7l33.01,33.03c1.82,1.86,1.8,4.85-0.04,6.68
			c-1.86,1.86-4.87,1.85-6.73,0l-33.39-33.26l-1.43-1.43c-1.87-1.86-4.86-1.86-6.72,0c-0.43,0.42-0.75,0.91-0.98,1.43
			c-0.78,1.75-0.46,3.86,0.98,5.3l18.34,17.96c1.86,1.85,1.86,4.86,0,6.73c-1.78,1.79-4.91,1.79-6.71,0l-39.05-38.78L28.98,288.14z
			 M201.96,289.84l-35.04,35.04l-10.84,10.84c-0.69-1.42-1.6-2.74-2.75-3.89l-0.58-0.58c1.43-0.68,2.76-1.61,3.94-2.78
			c2.7-2.7,4.18-6.28,4.18-10.09c0-3.81-1.49-7.39-4.18-10.08l-5.38-5.29l-42.43-41.75l10.97-11.77l20.88-20.88
			c8.18-8.18,19.05-12.68,30.61-12.68c11.56,0,22.44,4.5,30.61,12.68C218.84,245.49,218.84,272.96,201.96,289.84z"/>
	</g>
</g>
<text transform="matrix(1 0 0 1 747.3623 245.5562)" class="st1 st3 st4">®</text>
</svg>
