<?xml version="1.0" encoding="utf-8"?>
<!-- Generator: Adobe Illustrator 22.1.0, SVG Export Plug-In . SVG Version: 6.00 Build 0)  -->
<svg version="1.1" id="unknown" xmlns:sketch="http://www.bohemiancoding.com/sketch/ns"
	 xmlns="http://www.w3.org/2000/svg" xmlns:xlink="http://www.w3.org/1999/xlink" x="0px" y="0px" viewBox="0 0 100 100"
	 enable-background="new 0 0 100 100" xml:space="preserve">
<g id="aCa0kG.tif">
</g>
<g>
	<g>
		<g>
			<circle id="circle" fill="#F5F6FA" cx="50" cy="50" r="50"/>
		</g>
		<g>
			<g>
				<defs>
					<circle id="SVGID_1_" cx="50" cy="50" r="50"/>
				</defs>
				<clipPath id="SVGID_2_">
					<use xlink:href="#SVGID_1_"  overflow="visible"/>
				</clipPath>
				<g clip-path="url(#SVGID_2_)">
					<path fill="#409EFF" d="M88.1,82.4C83,81,75,79,70.1,77.7c-2.4-0.6-7.1-1.8-7.1-5.8S63,61,63,61H37c0,0,0,6.9,0,10.9
						s-4.7,5.2-7.1,5.8C25,79,17,81,11.9,82.4C21.1,93.2,34.7,100,50,100S78.9,93.2,88.1,82.4z"/>
					<g>
						<g>
							<defs>
								<path id="SVGID_3_" d="M63,71.9c0,4,4.7,5.2,7.1,5.8c7.6,2,22.8,5.9,22.8,5.9c3.2,1.1,5.7,3.5,7.1,6.6v9.8H0v-9.8
									c1.3-3.1,3.9-5.5,7.1-6.6c0,0,15.2-3.9,22.8-5.9c2.4-0.6,7.1-1.8,7.1-5.8S37,61,37,61h26C63,61,63,67.9,63,71.9z"/>
							</defs>
							<clipPath id="SVGID_4_">
								<use xlink:href="#SVGID_3_"  overflow="visible"/>
							</clipPath>
							<path id="head-shadow" clip-path="url(#SVGID_4_)" fill="#3372FE" d="M50.2,11c0.1,0,0.1,0,0.2,0l0,0c3.3,0,8.2,0.2,11.4,2
								c3.3,1.9,7.3,5.6,8.5,12.1c2.4,13.7-2.1,35.4-6.3,42.4c-4,6.7-9.8,9.2-13.5,9.4h-0.1c-0.1,0-0.1,0-0.2,0c-0.1,0-0.1,0-0.2,0
								h-0.1c-3.7-0.2-9.5-2.7-13.5-9.4c-4.2-7-8.7-28.7-6.3-42.4c1.2-6.5,5.2-10.2,8.5-12.1c3.2-1.8,8.1-2,11.4-2l0,0
								C50.1,11,50.1,11,50.2,11L50.2,11z"/>
						</g>
					</g>
					<g>
						<defs>
							<circle id="SVGID_5_" cx="50" cy="50" r="50"/>
						</defs>
						<clipPath id="SVGID_6_">
							<use xlink:href="#SVGID_5_"  overflow="visible"/>
						</clipPath>
						<path id="head" clip-path="url(#SVGID_6_)" fill="#409EFF" d="M49.6,16c19.1,0,20.7,13.8,20.8,15.1c1.1,11.9-3,28.1-6.8,33.7
							c-4,5.9-9.8,8.1-13.5,8.3c-0.2,0-0.2,0-0.3,0s-0.1,0-0.2,0c-3.8-0.3-9.6-2.5-13.6-8.4c-3.8-5.6-7.9-21.8-6.8-33.8
							C29.3,29.7,30.5,16,49.6,16z"/>
					</g>
				</g>
			</g>
		</g>
	</g>
</g>
</svg>
