<?xml version="1.0" encoding="utf-8"?>
<!-- Generator: Adobe Illustrator 23.0.1, SVG Export Plug-In . SVG Version: 6.00 Build 0)  -->
<svg version="1.1" id="Capa_1" xmlns="http://www.w3.org/2000/svg" xmlns:xlink="http://www.w3.org/1999/xlink" x="0px" y="0px"
	 viewBox="0 0 792 238" enable-background="new 0 0 792 238" xml:space="preserve">
<g>
	<g>
		<g>
			<path fill="#004325" d="M486.1,202v1.7h-2c-0.7,0-1.4,0.1-2,0.4c-0.6,0.3-1.1,0.6-1.6,1.1s-0.8,1-1.1,1.6c-0.3,0.6-0.4,1.3-0.4,2
				v5.9v12.5h-1.7v-12.5v-5.9v-4.9h-1.7v-1.7h1.7h1.7v1.7v0.4c1.3-1.5,2.9-2.3,5-2.3H486.1z"/>
		</g>
		<g>
			<path fill="#004325" d="M497.1,213.3c-0.3,0.1-0.8,0.3-1.5,0.6s-1.5,0.6-2.3,0.9c-0.8,0.3-1.6,0.6-2.4,0.9
				c-0.8,0.3-1.4,0.5-1.8,0.7v4.3c0,0.7,0.1,1.4,0.4,2s0.6,1.2,1.1,1.6c0.5,0.5,1,0.8,1.6,1.1s1.3,0.4,2,0.4s1.4-0.1,2-0.4
				c0.6-0.3,1.2-0.6,1.6-1.1c0.5-0.5,0.8-1,1.1-1.6c0.3-0.6,0.4-1.3,0.4-2h1.7c0,0.9-0.2,1.8-0.5,2.7c-0.4,0.8-0.8,1.5-1.4,2.2
				c-0.6,0.6-1.3,1.1-2.2,1.4c-0.8,0.4-1.7,0.5-2.7,0.5c-0.9,0-1.8-0.2-2.7-0.5c-0.8-0.4-1.5-0.8-2.2-1.4c-0.6-0.6-1.1-1.3-1.4-2.2
				c-0.4-0.8-0.5-1.7-0.5-2.7v-11.9c0-0.9,0.2-1.8,0.5-2.7c0.4-0.8,0.8-1.5,1.4-2.2c0.6-0.6,1.3-1.1,2.2-1.4
				c0.8-0.4,1.7-0.5,2.7-0.5c0.9,0,1.8,0.2,2.7,0.5c0.8,0.4,1.5,0.8,2.2,1.4c0.6,0.6,1.1,1.3,1.4,2.2c0.4,0.8,0.5,1.7,0.5,2.6v0.1
				C500.9,210.9,499.6,212.4,497.1,213.3z M494.1,203.6c-0.7,0-1.4,0.1-2,0.4c-0.6,0.3-1.2,0.6-1.6,1.1c-0.5,0.5-0.8,1-1.1,1.6
				c-0.3,0.6-0.4,1.3-0.4,2v5.8c0.5-0.2,1.1-0.4,1.9-0.7c0.7-0.3,1.5-0.6,2.2-0.8c0.7-0.3,1.4-0.5,2.1-0.8c0.6-0.2,1.1-0.4,1.3-0.5
				c0.6-0.2,1.2-0.6,1.8-1.1c0.6-0.5,0.9-1.1,0.9-2c0-0.7-0.1-1.4-0.4-2s-0.6-1.1-1.1-1.6s-1-0.8-1.6-1.1
				C495.5,203.8,494.8,203.6,494.1,203.6z"/>
		</g>
		<g>
			<path fill="#004325" d="M511.2,225.8c0.7,0,1.4-0.1,2-0.4c0.6-0.3,1.2-0.6,1.6-1.1c0.5-0.5,0.8-1,1.1-1.6s0.4-1.3,0.4-2h1.7
				c0,0.9-0.2,1.8-0.5,2.7c-0.4,0.8-0.8,1.5-1.4,2.2c-0.6,0.6-1.3,1.1-2.2,1.4c-0.8,0.4-1.7,0.5-2.7,0.5c-0.9,0-1.8-0.2-2.7-0.5
				c-0.8-0.4-1.5-0.8-2.2-1.4c-0.6-0.6-1.1-1.3-1.4-2.2c-0.4-0.8-0.5-1.7-0.5-2.7v-11.9c0-0.9,0.2-1.8,0.5-2.7
				c0.4-0.8,0.8-1.5,1.4-2.2c0.6-0.6,1.3-1.1,2.2-1.4c0.8-0.4,1.7-0.5,2.7-0.5c0.9,0,1.8,0.2,2.7,0.5c0.8,0.4,1.5,0.8,2.2,1.4
				c0.6,0.6,1.1,1.3,1.4,2.2c0.4,0.8,0.5,1.7,0.5,2.7h-1.7c0-0.7-0.1-1.4-0.4-2c-0.3-0.6-0.6-1.2-1.1-1.6c-0.5-0.5-1-0.8-1.6-1.1
				s-1.3-0.4-2-0.4s-1.4,0.1-2,0.4c-0.6,0.3-1.2,0.6-1.6,1.1c-0.5,0.5-0.8,1-1.1,1.6c-0.3,0.6-0.4,1.3-0.4,2v11.9
				c0,0.7,0.1,1.4,0.4,2s0.6,1.2,1.1,1.6c0.5,0.5,1,0.8,1.6,1.1C509.9,225.6,510.5,225.8,511.2,225.8z"/>
		</g>
		<g>
			<path fill="#004325" d="M523.3,201.8h1.7v1.7v23.3h-1.7v-23.3h-1.7v-1.7H523.3z M523.7,196c-0.4,0-0.7-0.1-0.9-0.4
				c-0.2-0.2-0.4-0.5-0.4-0.9s0.1-0.7,0.4-0.9c0.2-0.2,0.5-0.4,0.9-0.4c0.3,0,0.6,0.1,0.9,0.4c0.3,0.2,0.4,0.5,0.4,0.9
				s-0.1,0.7-0.4,0.9C524.3,195.9,524,196,523.7,196z"/>
		</g>
		<g>
			<path fill="#004325" d="M535.8,225.8c0.7,0,1.4-0.1,2-0.4c0.6-0.3,1.2-0.6,1.6-1.1c0.5-0.5,0.8-1,1.1-1.6s0.4-1.3,0.4-2h1.7
				c0,0.9-0.2,1.8-0.5,2.7c-0.4,0.8-0.8,1.5-1.4,2.2c-0.6,0.6-1.3,1.1-2.2,1.4c-0.8,0.4-1.7,0.5-2.7,0.5c-0.9,0-1.8-0.2-2.7-0.5
				c-0.8-0.4-1.5-0.8-2.2-1.4c-0.6-0.6-1.1-1.3-1.4-2.2c-0.4-0.8-0.5-1.7-0.5-2.7v-11.9c0-0.9,0.2-1.8,0.5-2.7
				c0.4-0.8,0.8-1.5,1.4-2.2c0.6-0.6,1.3-1.1,2.2-1.4c0.8-0.4,1.7-0.5,2.7-0.5c0.9,0,1.8,0.2,2.7,0.5c0.8,0.4,1.5,0.8,2.2,1.4
				c0.6,0.6,1.1,1.3,1.4,2.2c0.4,0.8,0.5,1.7,0.5,2.7h-1.7c0-0.7-0.1-1.4-0.4-2c-0.3-0.6-0.6-1.2-1.1-1.6c-0.5-0.5-1-0.8-1.6-1.1
				s-1.3-0.4-2-0.4s-1.4,0.1-2,0.4c-0.6,0.3-1.2,0.6-1.6,1.1c-0.5,0.5-0.8,1-1.1,1.6s-0.4,1.3-0.4,2v11.9c0,0.7,0.1,1.4,0.4,2
				c0.3,0.6,0.6,1.2,1.1,1.6c0.5,0.5,1,0.8,1.6,1.1C534.4,225.6,535.1,225.8,535.8,225.8z"/>
		</g>
		<g>
			<path fill="#004325" d="M546.1,227.2v-36.3h1.7v36.3H546.1z"/>
		</g>
		<g>
			<path fill="#004325" d="M558.8,202c0.9,0,1.8,0.2,2.6,0.5c0.8,0.4,1.4,0.8,2,1.4c0.6,0.6,1,1.3,1.3,2.2c0.3,0.8,0.5,1.7,0.5,2.7
				v5.9v6v6.5h-1.7v-2.1c-0.6,0.7-1.4,1.3-2.3,1.7c-0.9,0.4-1.8,0.6-2.8,0.6c-0.9,0-1.8-0.2-2.7-0.5c-0.8-0.4-1.5-0.8-2.2-1.4
				c-0.6-0.6-1.1-1.3-1.4-2.2c-0.4-0.8-0.5-1.7-0.5-2.7v-1.4c0-2.1,1.3-3.6,3.8-4.6c0.3-0.1,0.8-0.3,1.5-0.6s1.5-0.6,2.3-0.9
				c0.8-0.3,1.6-0.6,2.4-0.9c0.8-0.3,1.4-0.5,1.8-0.7v-2.8c0-1.4-0.4-2.6-1.3-3.6c-0.9-1-2-1.5-3.4-1.5c-0.7,0-1.4,0.1-2,0.4
				c-0.6,0.3-1.1,0.6-1.6,1.1s-0.8,1-1.1,1.6s-0.4,1.3-0.4,2H552c0-0.9,0.2-1.8,0.5-2.7c0.4-0.8,0.8-1.5,1.4-2.2
				c0.6-0.6,1.3-1.1,2.2-1.4C556.9,202.2,557.8,202,558.8,202z M563.5,214.7v-1.3c-0.5,0.2-1.1,0.4-1.9,0.7
				c-0.7,0.3-1.5,0.5-2.2,0.8s-1.4,0.5-2,0.8c-0.6,0.2-1,0.4-1.3,0.5c-0.6,0.2-1.3,0.6-1.9,1.1c-0.6,0.5-0.9,1.1-0.9,1.9v1.4
				c0,0.7,0.1,1.4,0.4,2c0.3,0.6,0.6,1.2,1.1,1.6c0.5,0.5,1,0.8,1.6,1.1s1.3,0.4,2,0.4s1.4-0.1,2-0.4c0.6-0.3,1.2-0.6,1.6-1.1
				c0.5-0.5,0.8-1,1.1-1.6s0.4-1.3,0.4-2L563.5,214.7L563.5,214.7z"/>
		</g>
		<g>
			<path fill="#004325" d="M578.9,202v1.7h-2c-0.7,0-1.4,0.1-2,0.4c-0.6,0.3-1.1,0.6-1.6,1.1s-0.8,1-1.1,1.6s-0.4,1.3-0.4,2v5.9
				v12.5h-1.7v-12.5v-5.9v-4.9h-1.7v-1.7h1.7h1.7v1.7v0.4c1.3-1.5,2.9-2.3,5-2.3H578.9z"/>
		</g>
		<g>
			<path fill="#004325" d="M596.6,202c0.9,0,1.8,0.2,2.7,0.5c0.8,0.4,1.5,0.8,2.2,1.4c0.6,0.6,1.1,1.3,1.4,2.2
				c0.4,0.8,0.5,1.7,0.5,2.7v5.9v12.5h-1.7v-12.5v-5.9c0-0.7-0.1-1.4-0.4-2c-0.3-0.6-0.6-1.2-1.1-1.6c-0.5-0.5-1-0.8-1.6-1.1
				s-1.3-0.4-2-0.4s-1.4,0.1-2,0.4c-0.6,0.3-1.2,0.6-1.6,1.1c-0.5,0.5-0.8,1-1.1,1.6s-0.4,1.3-0.4,2v5.9v12.5h-1.7v-12.5v-5.9v-6.5
				h1.7v2.1c0.6-0.7,1.4-1.3,2.3-1.7C594.6,202.2,595.5,202,596.6,202z"/>
		</g>
		<g>
			<path fill="#004325" d="M613.7,227.4c-0.9,0-1.8-0.2-2.7-0.5c-0.8-0.4-1.5-0.8-2.2-1.4c-0.6-0.6-1.1-1.3-1.4-2.2
				c-0.4-0.8-0.5-1.7-0.5-2.7v-11.9c0-0.9,0.2-1.8,0.5-2.7c0.4-0.8,0.8-1.5,1.4-2.2c0.6-0.6,1.3-1.1,2.2-1.4
				c0.8-0.4,1.7-0.5,2.7-0.5c0.9,0,1.8,0.2,2.7,0.5c0.8,0.4,1.5,0.8,2.2,1.4c0.6,0.6,1.1,1.3,1.4,2.2c0.4,0.8,0.5,1.7,0.5,2.7v11.9
				c0,0.9-0.2,1.8-0.5,2.7c-0.4,0.8-0.8,1.5-1.4,2.2c-0.6,0.6-1.3,1.1-2.2,1.4C615.5,227.3,614.6,227.4,613.7,227.4z M613.7,203.6
				c-0.7,0-1.4,0.1-2,0.4c-0.6,0.3-1.2,0.6-1.6,1.1c-0.5,0.5-0.8,1-1.1,1.6s-0.4,1.3-0.4,2v11.9c0,0.7,0.1,1.4,0.4,2
				c0.3,0.6,0.6,1.2,1.1,1.6c0.5,0.5,1,0.8,1.6,1.1s1.3,0.4,2,0.4s1.4-0.1,2-0.4c0.6-0.3,1.2-0.6,1.6-1.1c0.5-0.5,0.8-1,1.1-1.6
				s0.4-1.3,0.4-2v-11.9c0-0.7-0.1-1.4-0.4-2c-0.3-0.6-0.6-1.2-1.1-1.6c-0.5-0.5-1-0.8-1.6-1.1C615,203.8,614.4,203.6,613.7,203.6z"
				/>
		</g>
		<g>
			<path fill="#004325" d="M631.2,213.9c0.7,0.4,1.5,0.8,2.3,1.2s1.4,0.9,2.1,1.4c0.6,0.5,1.1,1.1,1.5,1.8s0.6,1.4,0.6,2.3
				c0,0.9-0.2,1.8-0.5,2.7c-0.4,0.8-0.8,1.5-1.4,2.2c-0.6,0.6-1.3,1.1-2.2,1.4c-0.8,0.4-1.7,0.5-2.7,0.5c-0.9,0-1.8-0.2-2.7-0.5
				c-0.8-0.4-1.5-0.8-2.2-1.4c-0.6-0.6-1.1-1.3-1.4-2.2c-0.4-0.8-0.5-1.7-0.5-2.7h1.7c0,0.7,0.1,1.4,0.4,2c0.3,0.6,0.6,1.2,1.1,1.6
				c0.5,0.5,1,0.8,1.6,1.1s1.3,0.4,2,0.4s1.4-0.1,2-0.4c0.6-0.3,1.2-0.6,1.6-1.1c0.5-0.5,0.8-1,1.1-1.6s0.4-1.3,0.4-2
				c0-0.6-0.2-1.2-0.5-1.6c-0.3-0.5-0.7-0.9-1.2-1.3c-0.5-0.4-1.1-0.8-1.7-1.1c-0.7-0.4-1.3-0.7-2.1-1.1c-0.8-0.4-1.5-0.8-2.3-1.2
				s-1.4-0.9-2.1-1.4c-0.6-0.5-1.1-1.1-1.5-1.8s-0.6-1.4-0.6-2.3c0-0.9,0.2-1.8,0.5-2.7c0.4-0.8,0.8-1.5,1.4-2.2
				c0.6-0.6,1.3-1.1,2.2-1.4c0.8-0.4,1.7-0.5,2.7-0.5c0.9,0,1.8,0.2,2.7,0.5c0.8,0.4,1.5,0.8,2.2,1.4c0.6,0.6,1.1,1.3,1.4,2.2
				c0.4,0.8,0.5,1.7,0.5,2.7h-1.7c0-0.7-0.1-1.4-0.4-2c-0.3-0.6-0.6-1.2-1.1-1.6c-0.5-0.5-1-0.8-1.6-1.1s-1.3-0.4-2-0.4
				s-1.4,0.1-2,0.4c-0.6,0.3-1.2,0.6-1.6,1.1c-0.5,0.5-0.8,1-1.1,1.6s-0.4,1.3-0.4,2c0,0.6,0.2,1.2,0.5,1.6c0.3,0.5,0.7,0.9,1.2,1.3
				c0.5,0.4,1.1,0.8,1.8,1.1C629.8,213.2,630.5,213.6,631.2,213.9z"/>
		</g>
		<g>
			<path fill="#004325" d="M667.7,202c0.9,0,1.8,0.2,2.7,0.5c0.8,0.4,1.5,0.8,2.2,1.4c0.6,0.6,1.1,1.3,1.4,2.2
				c0.4,0.8,0.5,1.7,0.5,2.7v5.9v12.5h-1.7v-12.5v-5.9c0-0.7-0.1-1.4-0.4-2c-0.3-0.6-0.6-1.2-1.1-1.6c-0.5-0.5-1-0.8-1.6-1.1
				s-1.3-0.4-2-0.4s-1.4,0.1-2,0.4c-0.6,0.3-1.1,0.6-1.6,1.1s-0.8,1-1.1,1.6s-0.4,1.3-0.4,2v5.9v12.5h-1.7v-12.5v-5.9
				c0-0.7-0.1-1.4-0.4-2c-0.3-0.6-0.6-1.2-1.1-1.6c-0.5-0.5-1-0.8-1.6-1.1s-1.3-0.4-2-0.4s-1.4,0.1-2,0.4c-0.6,0.3-1.2,0.6-1.6,1.1
				c-0.5,0.5-0.8,1-1.1,1.6s-0.4,1.3-0.4,2v5.9v12.5H649v-12.5v-5.9v-6.5h1.7v2.1c0.6-0.7,1.4-1.3,2.3-1.7c0.9-0.4,1.8-0.6,2.8-0.6
				c1.3,0,2.5,0.3,3.5,1c1.1,0.6,1.9,1.5,2.5,2.5c0.6-1,1.4-1.9,2.4-2.5C665.2,202.3,666.4,202,667.7,202z"/>
		</g>
		<g>
			<path fill="#004325" d="M691.6,202.2v12.5v6v6.5h-1.7v-2.1c-0.6,0.7-1.4,1.3-2.3,1.7c-0.9,0.4-1.8,0.6-2.8,0.6
				c-0.9,0-1.8-0.2-2.7-0.5c-0.8-0.4-1.5-0.8-2.2-1.4c-0.6-0.6-1.1-1.3-1.4-2.2c-0.4-0.8-0.5-1.7-0.5-2.7v-6v-12.5h1.7v12.5v6
				c0,0.7,0.1,1.4,0.4,2c0.3,0.6,0.6,1.2,1.1,1.6c0.5,0.5,1,0.8,1.6,1.1s1.3,0.4,2,0.4s1.4-0.1,2-0.4c0.6-0.3,1.2-0.6,1.6-1.1
				c0.5-0.5,0.8-1,1.1-1.6s0.4-1.3,0.4-2v-6v-12.5L691.6,202.2L691.6,202.2z"/>
		</g>
		<g>
			<path fill="#004325" d="M704.6,213.3c-0.3,0.1-0.8,0.3-1.5,0.6s-1.5,0.6-2.3,0.9c-0.8,0.3-1.6,0.6-2.4,0.9
				c-0.8,0.3-1.4,0.5-1.8,0.7v4.3c0,0.7,0.1,1.4,0.4,2c0.3,0.6,0.6,1.2,1.1,1.6c0.5,0.5,1,0.8,1.6,1.1s1.3,0.4,2,0.4s1.4-0.1,2-0.4
				c0.6-0.3,1.2-0.6,1.6-1.1c0.5-0.5,0.8-1,1.1-1.6s0.4-1.3,0.4-2h1.7c0,0.9-0.2,1.8-0.5,2.7c-0.4,0.8-0.8,1.5-1.4,2.2
				c-0.6,0.6-1.3,1.1-2.2,1.4c-0.8,0.4-1.7,0.5-2.7,0.5c-0.9,0-1.8-0.2-2.7-0.5c-0.8-0.4-1.5-0.8-2.2-1.4c-0.6-0.6-1.1-1.3-1.4-2.2
				c-0.4-0.8-0.5-1.7-0.5-2.7v-11.9c0-0.9,0.2-1.8,0.5-2.7c0.4-0.8,0.8-1.5,1.4-2.2c0.6-0.6,1.3-1.1,2.2-1.4
				c0.8-0.4,1.7-0.5,2.7-0.5c0.9,0,1.8,0.2,2.7,0.5c0.8,0.4,1.5,0.8,2.2,1.4c0.6,0.6,1.1,1.3,1.4,2.2c0.4,0.8,0.5,1.7,0.5,2.6v0.1
				C708.4,210.9,707.1,212.4,704.6,213.3z M701.6,203.6c-0.7,0-1.4,0.1-2,0.4c-0.6,0.3-1.2,0.6-1.6,1.1c-0.5,0.5-0.8,1-1.1,1.6
				s-0.4,1.3-0.4,2v5.8c0.5-0.2,1.1-0.4,1.9-0.7c0.7-0.3,1.5-0.6,2.2-0.8c0.7-0.3,1.4-0.5,2.1-0.8c0.6-0.2,1.1-0.4,1.3-0.5
				c0.6-0.2,1.2-0.6,1.8-1.1s0.9-1.1,0.9-2c0-0.7-0.1-1.4-0.4-2c-0.3-0.6-0.6-1.1-1.1-1.6s-1-0.8-1.6-1.1
				C703,203.8,702.3,203.6,701.6,203.6z"/>
		</g>
		<g>
			<path fill="#004325" d="M726.5,202.2l-6.6,25h-0.7h-1.1h-0.7l-6.6-25h1.7l6,22.9l6-22.9H726.5z"/>
		</g>
		<g>
			<path fill="#004325" d="M738.2,213.3c-0.3,0.1-0.8,0.3-1.5,0.6s-1.5,0.6-2.3,0.9c-0.8,0.3-1.6,0.6-2.4,0.9
				c-0.8,0.3-1.4,0.5-1.8,0.7v4.3c0,0.7,0.1,1.4,0.4,2c0.3,0.6,0.6,1.2,1.1,1.6c0.5,0.5,1,0.8,1.6,1.1s1.3,0.4,2,0.4s1.4-0.1,2-0.4
				c0.6-0.3,1.2-0.6,1.6-1.1c0.5-0.5,0.8-1,1.1-1.6s0.4-1.3,0.4-2h1.7c0,0.9-0.2,1.8-0.5,2.7c-0.4,0.8-0.8,1.5-1.4,2.2
				c-0.6,0.6-1.3,1.1-2.2,1.4c-0.8,0.4-1.7,0.5-2.7,0.5c-0.9,0-1.8-0.2-2.7-0.5c-0.8-0.4-1.5-0.8-2.2-1.4c-0.6-0.6-1.1-1.3-1.4-2.2
				c-0.4-0.8-0.5-1.7-0.5-2.7v-11.9c0-0.9,0.2-1.8,0.5-2.7c0.4-0.8,0.8-1.5,1.4-2.2c0.6-0.6,1.3-1.1,2.2-1.4
				c0.8-0.4,1.7-0.5,2.7-0.5c0.9,0,1.8,0.2,2.7,0.5c0.8,0.4,1.5,0.8,2.2,1.4c0.6,0.6,1.1,1.3,1.4,2.2c0.4,0.8,0.5,1.7,0.5,2.6v0.1
				C742.1,210.9,740.8,212.4,738.2,213.3z M735.3,203.6c-0.7,0-1.4,0.1-2,0.4c-0.6,0.3-1.2,0.6-1.6,1.1c-0.5,0.5-0.8,1-1.1,1.6
				s-0.4,1.3-0.4,2v5.8c0.5-0.2,1.1-0.4,1.9-0.7c0.7-0.3,1.5-0.6,2.2-0.8c0.7-0.3,1.4-0.5,2.1-0.8c0.6-0.2,1.1-0.4,1.3-0.5
				c0.6-0.2,1.2-0.6,1.8-1.1s0.9-1.1,0.9-2c0-0.7-0.1-1.4-0.4-2c-0.3-0.6-0.6-1.1-1.1-1.6s-1-0.8-1.6-1.1
				C736.7,203.8,736,203.6,735.3,203.6z"/>
		</g>
	</g>
	<g>
		<path fill="#009965" d="M361.5,142.9c0-17.9,13.8-32.7,34.5-32.7h22V95.5c0-13.2-7.9-22.7-21.3-22.7c-12,0-19.5,8.4-20.4,20.9
			c-0.2,1.6-0.9,2.3-2.3,2.3h-8.4c-1.4,0-2.3-0.9-2.3-2.3c1.1-19.3,13.8-33.3,33.3-33.3c20.9,0,34.2,15.2,34.2,35.1v47.4
			c0,20.2-13.6,35.1-34.5,35.1C375.3,178,361.5,163,361.5,142.9z M418,142.9v-20.2h-22c-13.4,0-21.5,9.1-21.5,20.2
			c0,13.4,8.2,22.7,22,22.7C410,165.5,418,156.2,418,142.9z"/>
	</g>
	<g>
		<path fill="#009965" d="M522.9,95.9v46.7c0,20.4-13.8,35.6-32.7,35.6c-10.9,0-18.4-4.5-23.8-11.3v58.4c0,1.4-0.9,2.3-2.3,2.3h-8.4
			c-1.4,0-2.3-0.9-2.3-2.3V95.9c0-20.4,13.8-35.6,34.7-35.6C509.1,60.3,522.9,75.5,522.9,95.9z M510,95.9c0-13.6-8.2-23.1-21.8-23.1
			c-13.6,0-21.8,9.5-21.8,23.1v46.7c0,13.6,8.2,23.1,21.8,23.1c13.6,0,21.8-9.5,21.8-23.1V95.9z"/>
	</g>
	<g>
		<path fill="#009965" d="M590.1,166.2v7.9c0,1.4-0.9,2.3-2.3,2.3h-2.9c-20.2,0-32-14.1-32-38.1V74.8h-14.1c-1.4,0-2.3-0.9-2.3-2.3
			v-7.7c0-1.4,0.9-2.3,2.3-2.3h14.1V33.1c0-1.4,0.9-2.3,2.3-2.3h8.4c1.4,0,2.3,0.9,2.3,2.3v29.5h19.3c1.4,0,2.3,0.9,2.3,2.3v7.7
			c0,1.4-0.9,2.3-2.3,2.3h-19.3v63.5c0,16.8,6.6,25.6,19,25.6h2.9C589.4,164,590.1,164.9,590.1,166.2z"/>
	</g>
	<g>
		<path fill="#009965" d="M602.5,142.9c0-17.9,13.8-32.7,34.5-32.7h22V95.5c0-13.2-7.9-22.7-21.3-22.7c-12,0-19.5,8.4-20.4,20.9
			c-0.2,1.6-0.9,2.3-2.3,2.3h-8.4c-1.4,0-2.3-0.9-2.3-2.3c1.1-19.3,13.8-33.3,33.3-33.3c20.9,0,34.2,15.2,34.2,35.1v47.4
			c0,20.2-13.6,35.1-34.5,35.1C616.4,178,602.5,163,602.5,142.9z M659,142.9v-20.2h-22c-13.4,0-21.5,9.1-21.5,20.2
			c0,13.4,8.2,22.7,22,22.7C651,165.5,659,156.2,659,142.9z"/>
	</g>
	<g>
		<path fill="#009965" d="M694.6,173.7V96.8c0-20.9,15.2-34.9,35.6-34.9h10c1.4,0,2.3,0.9,2.3,2.3v7.9c0,1.4-0.9,2.3-2.3,2.3h-10
			c-13.4,0-22.7,8.4-22.7,22.4v76.9c0,1.4-0.9,2.3-2.3,2.3h-8.4C695.5,176,694.6,175.1,694.6,173.7z"/>
	</g>
	<path fill="#009965" d="M280.7,175.6c0,1.6,1.8,2.6,3.3,2.6h9.6c1.6,0,1.1-1,1.1-2.6v-58.8l47.2,61.5c0.9,1.2,2.2,1.6,3.4,0.7
		l7.3-5.7c1.2-0.9,1.1-2.4,0.1-3.6c-2.4-3-45.4-61.2-45.4-61.2L341,70.7c1-1.1,1.1-2.3,0.1-3.3l-6.5-5.9c-1.1-1-2.4-0.6-3.4,0.4
		c-1.9,2.1-36.5,40.3-36.5,40.3v-88c0-1.6,0.5-3.1-1-3.1h-9.6c-1.6,0-3.4,1.5-3.4,3"/>
	<g>
		<g>
			<path fill="#004325" d="M235.6,35.6c2-1.8,2.1-4.9,0.2-6.8l-15.4-16.6c-1.8-2-4.9-2.1-6.8-0.2l-9.2,8.6c-2,1.8-2.1,4.9-0.2,6.8
				L219.6,44c1.8,2,4.9,2.1,6.8,0.2L235.6,35.6z"/>
		</g>
	</g>
	<g>
		<g>
			<polygon fill="#00A9E1" points="113.4,61.7 88.1,30.9 58.1,23.4 25.9,33.7 13.2,60.8 11.7,86.2 81.1,161.4 100,164.1 
				116.6,168.7 152.4,159.1 150.2,144.3 158,135.1 149.4,122.2 128.5,101.2 102.5,74.9 			"/>
		</g>
	</g>
	<g>
		<path fill="#004325" d="M200.6,28.5c-8.6-5.7-18.7-8.8-29.2-8.8c-14.1,0-27.4,5.5-37.4,15.5L115.2,54l-19-20.1
			c-9.7-9.7-22.7-14.7-36.5-15.7c-0.2,0-0.3,0-0.5,0c-14,0-27.1,5.8-37,15.7C12.4,43.7,6.9,57.1,6.9,71c0,14,5.4,27.2,15.3,37.1
			l25.1,25.2L73,158.9h-0.1l0.8,0.8c2.6,2.4,5.3,4.8,7.9,7.2c0,0,11.6,12.3,31.3,13.2c0,0,16.4,2.5,32.2-8.5c0,0,2.3-1.7,4.8-3.7
			c5.4-4.4,10.2-9.3,15.2-14.3c0.6-0.6,1.2-1.2,1.8-1.8l41.8-41.8c16.8-16.8,19.9-42.3,9.2-62.3L200.6,28.5z M29,101.5
			c-8.1-8.1-12.5-18.8-12.5-30.2S20.9,49.1,29,41c8.2-8.2,18.9-12.8,30.7-12.5C70.9,28.6,81.5,33,89.5,41l20.1,20.7L96.8,76l6.2,5.3
			l35,35l12,12c0.9,0.9,1.4,2.1,1.4,3.4c0,1.3-0.5,2.5-1.4,3.4c-1.9,1.9-4.9,1.9-6.7,0l-18.7-18.7l-16.1-15.9
			c-1.9-1.9-4.9-1.9-6.7,0c-1.9,1.9-1.9,4.9,0,6.7l9.4,9.2l35.6,35.5c0.9,0.9,1.4,2.1,1.4,3.4c0,0.2,0,0.3,0,0.5l-0.9,2.4
			c-0.1,0.2-0.3,0.3-0.4,0.5c-1.9,1.9-4.9,1.9-6.7,0l-10-10c0,0,0,0-0.1-0.1l-32.2-32.2l-2.6-2.5c-1.9-1.9-4.9-1.9-6.7,0
			c-1.9,1.9-1.9,4.9,0,6.7l1.8,1.7l33,33c1.8,1.9,1.8,4.8,0,6.7c-1.9,1.9-4.9,1.9-6.7,0L83,128.7l-1.4-1.4c-1.9-1.9-4.9-1.9-6.7,0
			c-0.4,0.4-0.7,0.9-1,1.4c-0.8,1.7-0.5,3.9,1,5.3l18.3,18c1.9,1.9,1.9,4.9,0,6.7c-1.8,1.8-4.9,1.8-6.7,0l-39-38.8L29,101.5z
			 M202,103.2l-35,35L156.1,149c-0.7-1.4-1.6-2.7-2.8-3.9l-0.6-0.6c1.4-0.7,2.8-1.6,3.9-2.8c2.7-2.7,4.2-6.3,4.2-10.1
			c0-3.8-1.5-7.4-4.2-10.1l-5.4-5.3l-42.4-41.8l11-11.8l20.9-20.9c8.2-8.2,19-12.7,30.6-12.7s22.4,4.5,30.6,12.7
			C218.8,58.8,218.8,86.3,202,103.2z"/>
	</g>
</g>
<text transform="matrix(1 0 0 1 1101.5 -198.173)" font-family="'ArialMT'" font-size="12px">NODOS MODIFICADOS</text>
<g>
	<path fill="#009965" d="M743,44.3c0-2.8,0.6-5.5,1.9-7.8s3.1-4.2,5.3-5.6c2.3-1.4,4.8-2,7.5-2s5.2,0.6,7.5,2
		c2.3,1.4,4.1,3.3,5.3,5.6c1.3,2.3,1.9,5,1.9,7.8c0,2.7-0.6,5.3-1.9,7.7c-1.3,2.3-3,4.4-5.3,5.8c-2.3,1.4-4.8,2.2-7.5,2.2
		s-5.3-0.8-7.5-2.2c-2.3-1.4-4.1-3.3-5.3-5.8C743.6,49.7,743,47,743,44.3z M745.3,44.3c0,2.3,0.6,4.5,1.7,6.6s2.7,3.6,4.5,4.8
		c1.9,1.1,3.9,1.7,6.3,1.7c2.2,0,4.4-0.6,6.3-1.7c1.9-1.1,3.4-2.8,4.5-4.8s1.6-4.2,1.6-6.6c0-2.3-0.5-4.5-1.6-6.6s-2.7-3.6-4.5-4.7
		c-1.9-1.1-4.1-1.7-6.3-1.7s-4.2,0.6-6.3,1.7c-2,1.1-3.4,2.7-4.5,4.7C745.9,39.8,745.3,42,745.3,44.3z M754.7,45.9v7h-3V35.3h5.8
		c2.2,0,3.8,0.5,5,1.4c1.3,0.9,1.7,2.2,1.7,3.9s-0.9,3-2.7,3.9c1.7,0.6,2.5,2,2.5,4.2V50c0,1.3,0.2,2,0.3,2.5v0.3h-3
		c-0.2-0.5-0.3-1.4-0.3-2.7s0-2,0-2.3c-0.2-1.4-1.1-2-2.7-2h-3.8V45.9z M754.7,43.2h3.3c0.9,0,1.9-0.3,2.3-0.8
		c0.6-0.5,0.9-1.1,0.9-1.9c0-0.9-0.3-1.7-0.8-2.2c-0.5-0.5-1.6-0.6-3-0.6h-2.8L754.7,43.2L754.7,43.2z"/>
</g>
</svg>
